# xmcd
#
# Track frame offsets: 
#        150
#        17610
#        33817
#        83170
#        131577
#
# Disc length: 2192 seconds
#
# Revision: 15
# Processed by: cddbd v1.5.1PL2 Copyright (c) Steve Scherf et al.
# Submitted via: ExactAudioCopy v0.95b3
#
DISCID=2f088e05
DTITLE=FAITHLESS - INSOMNIA [CD MAXI)
DYEAR=1995
DGENRE=Dance
TTITLE0=INSOMNIA (CEC EDIT)
TTITLE1=INSOMNIA (MONSTER RADIO EDIT
TTITLE2=INSOMNIA (ORIGINAL MIX)
TTITLE3=INSOMNIA (MOODY MIX)
TTITLE4=INSOMNIA (TUFF MIX)
EXTD=YEAR: 1995
EXTT0=
EXTT1=
EXTT2=
EXTT3=
EXTT4=
PLAYORDER=
